<?xml version="1.0" standalone="no"?><!DOCTYPE svg PUBLIC "-//W3C//DTD SVG 1.1//EN" "http://www.w3.org/Graphics/SVG/1.1/DTD/svg11.dtd"><svg class="icon" height="512" viewBox="0 0 1024 1024" version="1.1" xmlns="http://www.w3.org/2000/svg"><path d="M1017.639752 515.180124a508.819876 508.819876 0 1 0-1017.639752 0 508.819876 508.819876 0 0 0 1017.639752 0z" fill="#F76260" /><path d="M505.258137 455.648199l-176.051677-182.157516a28.239503 28.239503 0 0 0-39.942361 0l-13.738136 13.483727a27.985093 27.985093 0 0 0 0 39.94236l175.542857 181.903106-182.157516 176.051677a28.239503 28.239503 0 0 0 0 39.94236l13.483727 13.738137a27.985093 27.985093 0 0 0 39.94236 0l182.157516-176.051677 176.051677 182.157515a28.239503 28.239503 0 0 0 39.94236 0l13.738137-13.483727a27.985093 27.985093 0 0 0 0-39.94236L557.666584 508.819876l182.157515-176.051677a28.239503 28.239503 0 0 0 0-39.94236l-12.466087-12.974907A27.985093 27.985093 0 0 0 686.906832 279.850932z" fill="#FFFFFF" /></svg>