<svg xmlns="http://www.w3.org/2000/svg" viewBox="0 0 31.8 35.8"><defs><style>.cls-1{fill:#2cbfa7;}.cls-2{fill:#2196f3;}</style></defs><title>processing</title><g id="Layer_2" data-name="Layer 2"><g id="Layer_1-2" data-name="Layer 1"><path class="cls-1" d="M24.9,35.8H.9a.9.9,0,0,1-.9-.9V.9A.9.9,0,0,1,.9,0h16a.9.9,0,0,1,0,1.8H1.8V34H24.9a.9.9,0,0,1,0,1.8Z"/><path class="cls-1" d="M24.9,23.8a.9.9,0,0,1-.9-.9V8.9a.9.9,0,0,1,1.8,0v14A.9.9,0,0,1,24.9,23.8Z"/><path class="cls-1" d="M24.9,9.81h-8a.9.9,0,0,1-.9-.9v-8A.9.9,0,0,1,17.53.27l8,8a.9.9,0,0,1-.63,1.54ZM17.8,8h4.92L17.8,3.08Z"/><path class="cls-2" d="M24.9,35.8a6.9,6.9,0,1,1,6.9-6.9A6.9,6.9,0,0,1,24.9,35.8Zm0-12A5.1,5.1,0,1,0,30,28.9,5.1,5.1,0,0,0,24.9,23.8Z"/><path class="cls-2" d="M26.59,30.81h-2a.9.9,0,0,1-.9-.9V26.7a.9.9,0,0,1,1.8,0V29h1.07a.9.9,0,0,1,0,1.8Z"/><path class="cls-1" d="M20.34,16.74H5.16a.9.9,0,1,1,0-1.8H20.34a.9.9,0,0,1,0,1.8Z"/><path class="cls-2" d="M17.34,21.8H5.16a.9.9,0,0,1,0-1.8H17.34a.9.9,0,0,1,0,1.8Z"/><path class="cls-2" d="M14.34,26.86H5.16a.9.9,0,0,1,0-1.8h9.18a.9.9,0,0,1,0,1.8Z"/><path class="cls-2" d="M8,11.6a3.43,3.43,0,1,1,3.42-3.43A3.43,3.43,0,0,1,8,11.6Zm0-5A1.63,1.63,0,1,0,9.62,8.17,1.62,1.62,0,0,0,8,6.55Z"/></g></g></svg>